HIERARCHY
ROOT HipCenter
{
    OFFSET 0.0 0.0 -0.0
    CHANNELS 6 Xposition Yposition Zposition Zrotation Xrotation Yrotation
    JOINT Spine
    {
        OFFSET 0.0 12.241787910461426 0.0
        CHANNELS 3 Zrotation Xrotation Yrotation
        JOINT ShoulderCenter
        {
            OFFSET 0.0 35.041839599609375 0.0
            CHANNELS 3 Zrotation Xrotation Yrotation
            JOINT LeftShoulder
            {
                OFFSET 18.595348358154297 0.0 0.0
                CHANNELS 3 Zrotation Xrotation Yrotation
                JOINT LeftElbow
                {
                    OFFSET 29.717397689819336 0.0 0.0
                    CHANNELS 3 Zrotation Xrotation Yrotation
                    JOINT LeftWrist
                    {
                        OFFSET 30.158843994140625 0.0 0.0
                        CHANNELS 3 Zrotation Xrotation Yrotation
                        JOINT LeftHand
                        {
                            OFFSET 4.084925174713135 0.0 0.0
                            CHANNELS 3 Zrotation Xrotation Yrotation
                            End Site
                            {
                                OFFSET 1.6339701414108276 0.0 0.0
                            }
                        }
                    }
                }
            }
            JOINT RightShoulder
            {
                OFFSET -18.595348358154297 0.0 0.0
                CHANNELS 3 Zrotation Xrotation Yrotation
                JOINT RightElbow
                {
                    OFFSET -29.717397689819336 0.0 0.0
                    CHANNELS 3 Zrotation Xrotation Yrotation
                    JOINT RightWrist
                    {
                        OFFSET -30.158843994140625 0.0 0.0
                        CHANNELS 3 Zrotation Xrotation Yrotation
                        JOINT RightHand
                        {
                            OFFSET -4.084925174713135 0.0 0.0
                            CHANNELS 3 Zrotation Xrotation Yrotation
                            End Site
                            {
                                OFFSET -1.6339701414108276 0.0 0.0
                            }
                        }
                    }
                }
            }
            End Site
            {
                OFFSET 0.0 14.016736030578613 0.0
            }
        }
    }
    JOINT LeftHip
    {
        OFFSET 15.674201965332031 0.0 0.0
        CHANNELS 3 Zrotation Xrotation Yrotation
        JOINT LeftKnee
        {
            OFFSET 0.0 -41.608306884765625 0.0
            CHANNELS 3 Zrotation Xrotation Yrotation
            JOINT LeftAnkle
            {
                OFFSET 0.0 -41.75336456298828 0.0
                CHANNELS 3 Zrotation Xrotation Yrotation
                JOINT LeftFoot
                {
                    OFFSET 0.0 -9.873034477233887 0.0
                    CHANNELS 3 Zrotation Xrotation Yrotation
                    End Site
                    {
                        OFFSET 0.0 0.0 3.949213981628418
                    }
                }
            }
        }
    }
    JOINT RightHip
    {
        OFFSET -15.674201965332031 0.0 0.0
        CHANNELS 3 Zrotation Xrotation Yrotation
        JOINT RightKnee
        {
            OFFSET 0.0 -41.608306884765625 0.0
            CHANNELS 3 Zrotation Xrotation Yrotation
            JOINT RightAnkle
            {
                OFFSET 0.0 -41.75336456298828 0.0
                CHANNELS 3 Zrotation Xrotation Yrotation
                JOINT RightFoot
                {
                    OFFSET 0.0 -9.873034477233887 0.0
                    CHANNELS 3 Zrotation Xrotation Yrotation
                    End Site
                    {
                        OFFSET 0.0 0.0 3.949213981628418
                    }
                }
            }
        }
    }
}
MOTION
Frames: 7
Frame Time: 0.03333333333333333
-55.5 0.0 -33.0 -34.72463958725108 -2.32997007547153 80.10266329525165 -6.779147582730312 11.399145122597876 1.4865447487783843 -1.277680963660365e-06 -6.445272896188341e-07 -2.1510711137780163 115.44794907048545 -18.164432805991204 -130.88095761106896 -9.33281714199522e-06 1.1980753633643623e-06 38.78663699962959 -6.640390315115758e-06 -83.86833667638324 82.91967727788604 -9.541664044390553e-15 2.648343778830095e-31 -3.1805546814635176e-15 -94.84740863095467 -18.103317647186994 170.5806523147518 -3.4508365320201963e-06 -1.5668138552481158e-06 -101.01814222679985 8.792178394301877e-07 -65.49007014109343 -38.69632192333306 -7.951386703658791e-16 5.517382872562698e-33 -7.951386703658791e-16 15.089336998727717 -46.211428146241325 16.066771062022188 10.04147629666372 28.174345728562443 -48.32302676592287 90.28708028033763 -53.264295041859505 150.37564043074426 7.951386703658792e-15 3.1805546814635168e-15 1.5902773407317582e-15 2.650157262687309 -34.12226301963078 9.83584267182575 0.33387030028750114 3.6608501125017887 3.41236891043421 -46.77156430533459 -68.76289724458114 -89.68219866949123 -6.3611093629270335e-15 1.7655625192200634e-31 -3.1805546814635168e-15
-55.5 -0.0 -32.79999923706055 -34.99202179544209 -2.814038333090935 81.0015516387642 -6.2764268802609955 11.514821655971794 1.3842353376817393 5.991216311385322e-07 -2.009473794583849e-06 -3.316079259902139 115.61230337565772 -17.780503939222363 -130.61430892434268 1.1426761379078305e-06 5.0576560909190685e-06 38.65252824278194 -4.378680078387934e-07 -84.89980618972984 81.8841902041756 0.0 0.0 1.5902773407317588e-15 -94.14714406716762 -17.667327127505953 175.86077611948198 -2.2092052353915194e-06 2.7450512168600707e-06 -106.21015973958184 -2.740910918700639e-06 -67.36923335318755 -38.080964864237934 2.2069531490250793e-31 -6.361109362927035e-15 3.975693351829397e-15 15.091162045889124 -47.00343386112217 17.232515940348915 10.795236160832793 28.28293530055495 -48.93711879732956 90.13817827452193 -54.38701719463648 150.0066570425044 6.361109362927031e-15 8.827812596100317e-32 1.5902773407317578e-15 2.854619496924277 -35.158011436477544 9.1289002841066 0.3923855737226686 5.592418552605354 5.257774408398201 -52.467701315896505 -67.87796488212943 -96.0095226293422 0.0 3.1805546814635168e-15 0.0
-55.599998474121094 -0.10000000149011612 -32.70000076293945 -34.724639757630555 -3.260219678126204 81.25702908870181 -5.876034693414052 12.097633588723772 1.3398910130108515 -1.317399540644142e-06 4.4081832519018056e-07 -4.056168225099096 116.28864876600318 -17.333047238890053 -130.42483988367914 1.616635640395161e-06 4.348444229573605e-06 38.663966810698035 1.9612278867578987e-05 -84.46907936073028 83.08193218750806 -3.1805546814635168e-15 -2.2069531490250793e-31 7.951386703658792e-15 -95.10759448757183 -18.434042542178542 176.74909333741508 2.836458919532471e-07 6.0740208073764295e-06 -108.00984211135861 -1.0055214307893326e-06 -69.37876310762698 -36.65222618653425 3.1805546814635168e-15 2.2069531490250793e-32 7.951386703658792e-16 15.649234897401676 -46.96293381979779 17.634865651171893 10.81614136329186 28.5909545290522 -50.046514622164295 91.69580201964808 -54.30464314072865 151.54421225038024 -1.5902773407317582e-15 -1.5902773407317582e-15 1.5902773407317582e-15 3.115466022077524 -35.114534051840415 9.572907419323416 0.6248331866167502 6.131301294833682 5.656187478361817 -54.780808810545324 -67.09757190076454 -97.93547023606178 -6.3611093629270335e-15 3.1805546814635168e-15 1.7655625192200634e-31
-55.69999694824219 -0.10000000149011612 -32.70000076293945 -34.60566754285046 -3.297472515060103 80.82636813138052 -6.160062533616324 12.370233821325202 1.5008186427600125 2.076596037117369e-06 2.4105026399828055e-06 -3.873334208794632 116.66427744249101 -17.075472655068566 -130.1250864834289 -2.5792136629309494e-06 2.9919141930571577e-07 38.947210916797005 2.730271817072451e-05 -84.6518858391815 83.00426142253079 -6.361109362927033e-15 8.827812596100317e-32 -1.5902773407317582e-15 -97.42191325051837 -19.516083900640933 171.99231498563836 -4.4221896701635405e-07 4.0942098007609664e-06 -105.42865745429198 -4.424188238294888e-06 -68.78896746880207 -36.33991137474185 3.1805546814635168e-15 6.3611093629270335e-15 -3.975693351829396e-15 16.130756852346032 -46.852801179111594 17.807934135305075 10.77307529683107 28.913949901456338 -50.79077635450432 91.89356589828911 -53.18290093355906 152.00143996687302 -1.5902773407317582e-15 4.4139062980501586e-32 -3.1805546814635164e-15 3.4576998670633485 -35.10452906734379 9.463726887125793 0.5554925868196365 6.141462676436793 5.637476980733763 -53.56470311526506 -67.56095502384701 -96.44319666848449 6.3611093629270335e-15 -3.1805546814635168e-15 1.7655625192200634e-31
-56.0 -0.10000000149011612 -32.70000076293945 -34.992022280396974 -2.814039240721646 79.79698141449468 -7.2587634636786165 11.696495056970619 1.641535517949804 4.2714677314185637e-07 -1.5276431438723325e-06 -2.5875807897419136 117.23156414129308 -17.361843063182533 -129.87915018086414 -4.67421590972045e-06 2.727398573594529e-06 39.04403865910225 2.801569595530839e-05 -82.16814323312828 82.41230356702042 0.0 0.0 -1.5902773407317584e-15 -98.73708386532097 -19.951694927505436 164.3865843364115 2.9012566299107126e-06 1.840554593482767e-06 -98.04662082071147 -6.320088473536948e-06 -65.93988880092977 -38.33475415658939 -7.951386703658792e-16 -5.517382872562698e-33 7.951386703658792e-16 16.87372003996393 -46.97840450303975 17.335398186518166 9.704005923882029 29.317470391850467 -50.29865360240032 90.87352950933942 -50.88741906473781 151.2595204771772 5.565970692561156e-15 1.5902773407317584e-15 -4.770832022195277e-15 3.8061727294703562 -35.63910391596674 10.118098996813904 0.4932414636424019 5.866930883790617 5.306510929025619 -51.27226251133997 -68.06996520205263 -93.51401208205358 -6.3611093629270335e-15 3.1805546814635168e-15 -3.1805546814635168e-15
-56.19999694824219 -0.10000000149011612 -32.70000076293945 -35.37474794651241 -2.3345891703830106 78.23581043595514 -8.25129973700789 10.732810595761173 1.8233070735380994 1.1830523118108393e-06 1.9193642935540385e-06 -0.5604118107714944 118.54922617742815 -18.178423035766393 -129.4258217873631 -4.336258724541458e-07 2.744758988254575e-06 39.40003045536886 1.6609169739762844e-05 -85.7673957100755 82.95507224546495 -3.1805546814635176e-15 0.0 0.0 -98.41459026282548 -19.182520698137633 156.28725217061483 2.925320479926509e-06 9.775850084989314e-07 -88.42296019529964 8.588659497519044e-07 -62.45519143286395 -41.13133175596898 2.3854160110976376e-15 6.3611093629270335e-15 -3.1805546814635168e-15 17.952786698869954 -46.87842910346624 17.242529631682892 8.877289813412414 29.6672914072364 -49.87190946585303 91.07633723023648 -48.86416606676423 151.6575465766787 3.1805546814635168e-15 -3.1805546814635168e-15 1.5902773407317584e-15 4.5766381065253015 -36.128838614348275 9.987297126260275 0.15043560694835711 5.33883906921933 4.888441444822943 -45.625545145067 -69.72242533207682 -87.85367891546798 8.827812596100317e-32 -3.1805546814635168e-15 3.1805546814635168e-15
-56.400001525878906 -0.20000000298023224 -32.60000228881836 -35.37476137744685 -2.334590311032295 77.17746774772318 -8.39021504929796 10.35565870057625 1.857778575422509 -2.1775785269898253e-06 -3.7934874207664283e-06 1.362793523657849 119.98975037675423 -19.24219302174163 -128.76109337088022 -9.115523196509362e-07 -2.1909370296818497e-06 39.64574493690534 -3.0554977077510215e-05 -87.12172947470275 83.11765995381778 3.1805546814635168e-15 -1.3241718894150476e-31 -4.770832022195275e-15 -96.43150504666482 -17.232392805136364 150.36572351341647 2.6330218966224403e-06 -4.1900353740579347e-07 -81.89414890263852 -4.7129859624901315e-06 -63.88366807537129 -43.69200372482171 -1.5902773407317584e-15 -5.517382872562698e-33 3.975693351829396e-16 19.270567730250768 -46.61814569586683 17.68051398521678 8.243586659511488 30.26800364028599 -50.22657509034445 91.5086992988008 -47.23725249070608 152.18438651895974 -3.1805546814635164e-15 -1.5902773407317584e-15 4.770832022195274e-15 5.38146226403018 -36.17331252646086 10.215479856297861 0.1934542715378753 5.078021831070411 4.594056924088027 -42.200468048950064 -70.38391205218632 -83.87779765733504 0.0 0.0 -6.3611093629270335e-15
